<svg id="visual" viewBox="0 0 900 600" width="900" height="600" xmlns="http://www.w3.org/2000/svg" xmlns:xlink="http://www.w3.org/1999/xlink" version="1.1"><path d="M0 442L8.8 435.8C17.7 429.7 35.3 417.3 53 410.5C70.7 403.7 88.3 402.3 106 403.8C123.7 405.3 141.3 409.7 159 418.2C176.7 426.7 194.3 439.3 212 443.2C229.7 447 247.3 442 265 441C282.7 440 300.3 443 318 437.7C335.7 432.3 353.3 418.7 371 415C388.7 411.3 406.3 417.7 423.8 414.8C441.3 412 458.7 400 476.2 396.5C493.7 393 511.3 398 529 406.7C546.7 415.3 564.3 427.7 582 435.5C599.7 443.3 617.3 446.7 635 444.8C652.7 443 670.3 436 688 436.7C705.7 437.3 723.3 445.7 741 440.2C758.7 434.7 776.3 415.3 794 413C811.7 410.7 829.3 425.3 847 425.3C864.7 425.3 882.3 410.7 891.2 403.3L900 396L900 601L891.2 601C882.3 601 864.7 601 847 601C829.3 601 811.7 601 794 601C776.3 601 758.7 601 741 601C723.3 601 705.7 601 688 601C670.3 601 652.7 601 635 601C617.3 601 599.7 601 582 601C564.3 601 546.7 601 529 601C511.3 601 493.7 601 476.2 601C458.7 601 441.3 601 423.8 601C406.3 601 388.7 601 371 601C353.3 601 335.7 601 318 601C300.3 601 282.7 601 265 601C247.3 601 229.7 601 212 601C194.3 601 176.7 601 159 601C141.3 601 123.7 601 106 601C88.3 601 70.7 601 53 601C35.3 601 17.7 601 8.8 601L0 601Z" fill="#00e4e8"></path><path d="M0 469L8.8 466.5C17.7 464 35.3 459 53 458.3C70.7 457.7 88.3 461.3 106 460.2C123.7 459 141.3 453 159 452.3C176.7 451.7 194.3 456.3 212 459.3C229.7 462.3 247.3 463.7 265 460.8C282.7 458 300.3 451 318 448.5C335.7 446 353.3 448 371 445.3C388.7 442.7 406.3 435.3 423.8 437.8C441.3 440.3 458.7 452.7 476.2 454.2C493.7 455.7 511.3 446.3 529 441C546.7 435.7 564.3 434.3 582 432.7C599.7 431 617.3 429 635 427.2C652.7 425.3 670.3 423.7 688 421C705.7 418.3 723.3 414.7 741 423.5C758.7 432.3 776.3 453.7 794 454.5C811.7 455.3 829.3 435.7 847 431.8C864.7 428 882.3 440 891.2 446L900 452L900 601L891.2 601C882.3 601 864.7 601 847 601C829.3 601 811.7 601 794 601C776.3 601 758.7 601 741 601C723.3 601 705.7 601 688 601C670.3 601 652.7 601 635 601C617.3 601 599.7 601 582 601C564.3 601 546.7 601 529 601C511.3 601 493.7 601 476.2 601C458.7 601 441.3 601 423.8 601C406.3 601 388.7 601 371 601C353.3 601 335.7 601 318 601C300.3 601 282.7 601 265 601C247.3 601 229.7 601 212 601C194.3 601 176.7 601 159 601C141.3 601 123.7 601 106 601C88.3 601 70.7 601 53 601C35.3 601 17.7 601 8.8 601L0 601Z" fill="#00d1f4"></path><path d="M0 445L8.8 448.3C17.7 451.7 35.3 458.3 53 457.5C70.7 456.7 88.3 448.3 106 447.5C123.7 446.7 141.3 453.3 159 458.2C176.7 463 194.3 466 212 469.8C229.7 473.7 247.3 478.3 265 479.5C282.7 480.7 300.3 478.3 318 473.2C335.7 468 353.3 460 371 455.2C388.7 450.3 406.3 448.7 423.8 455.7C441.3 462.7 458.7 478.3 476.2 479.5C493.7 480.7 511.3 467.3 529 462C546.7 456.7 564.3 459.3 582 456.2C599.7 453 617.3 444 635 449.3C652.7 454.7 670.3 474.3 688 479.8C705.7 485.3 723.3 476.7 741 473C758.7 469.3 776.3 470.7 794 470.8C811.7 471 829.3 470 847 467C864.7 464 882.3 459 891.2 456.5L900 454L900 601L891.2 601C882.3 601 864.7 601 847 601C829.3 601 811.7 601 794 601C776.3 601 758.7 601 741 601C723.3 601 705.7 601 688 601C670.3 601 652.7 601 635 601C617.3 601 599.7 601 582 601C564.3 601 546.7 601 529 601C511.3 601 493.7 601 476.2 601C458.7 601 441.3 601 423.8 601C406.3 601 388.7 601 371 601C353.3 601 335.7 601 318 601C300.3 601 282.7 601 265 601C247.3 601 229.7 601 212 601C194.3 601 176.7 601 159 601C141.3 601 123.7 601 106 601C88.3 601 70.7 601 53 601C35.3 601 17.7 601 8.8 601L0 601Z" fill="#00bbfb"></path><path d="M0 478L8.8 474.7C17.7 471.3 35.3 464.7 53 470.2C70.7 475.7 88.3 493.3 106 498C123.7 502.7 141.3 494.3 159 492.8C176.7 491.3 194.3 496.7 212 500C229.7 503.3 247.3 504.7 265 502.8C282.7 501 300.3 496 318 497C335.7 498 353.3 505 371 506.7C388.7 508.3 406.3 504.7 423.8 503.8C441.3 503 458.7 505 476.2 504.2C493.7 503.3 511.3 499.7 529 494.8C546.7 490 564.3 484 582 483.3C599.7 482.7 617.3 487.3 635 492.2C652.7 497 670.3 502 688 503C705.7 504 723.3 501 741 498.2C758.7 495.3 776.3 492.7 794 492.8C811.7 493 829.3 496 847 493.5C864.7 491 882.3 483 891.2 479L900 475L900 601L891.2 601C882.3 601 864.7 601 847 601C829.3 601 811.7 601 794 601C776.3 601 758.7 601 741 601C723.3 601 705.7 601 688 601C670.3 601 652.7 601 635 601C617.3 601 599.7 601 582 601C564.3 601 546.7 601 529 601C511.3 601 493.7 601 476.2 601C458.7 601 441.3 601 423.8 601C406.3 601 388.7 601 371 601C353.3 601 335.7 601 318 601C300.3 601 282.7 601 265 601C247.3 601 229.7 601 212 601C194.3 601 176.7 601 159 601C141.3 601 123.7 601 106 601C88.3 601 70.7 601 53 601C35.3 601 17.7 601 8.8 601L0 601Z" fill="#00a2f9"></path><path d="M0 528L8.8 524C17.7 520 35.3 512 53 505.2C70.7 498.3 88.3 492.7 106 491.5C123.7 490.3 141.3 493.7 159 497C176.7 500.3 194.3 503.7 212 509.7C229.7 515.7 247.3 524.3 265 523.5C282.7 522.7 300.3 512.3 318 506.3C335.7 500.3 353.3 498.7 371 496.7C388.7 494.7 406.3 492.3 423.8 496.5C441.3 500.7 458.7 511.3 476.2 510.3C493.7 509.3 511.3 496.7 529 491.8C546.7 487 564.3 490 582 493C599.7 496 617.3 499 635 498.3C652.7 497.7 670.3 493.3 688 492.7C705.7 492 723.3 495 741 494.2C758.7 493.3 776.3 488.7 794 489.7C811.7 490.7 829.3 497.3 847 503.3C864.7 509.3 882.3 514.7 891.2 517.3L900 520L900 601L891.2 601C882.3 601 864.7 601 847 601C829.3 601 811.7 601 794 601C776.3 601 758.7 601 741 601C723.3 601 705.7 601 688 601C670.3 601 652.7 601 635 601C617.3 601 599.7 601 582 601C564.3 601 546.7 601 529 601C511.3 601 493.7 601 476.2 601C458.7 601 441.3 601 423.8 601C406.3 601 388.7 601 371 601C353.3 601 335.7 601 318 601C300.3 601 282.7 601 265 601C247.3 601 229.7 601 212 601C194.3 601 176.7 601 159 601C141.3 601 123.7 601 106 601C88.3 601 70.7 601 53 601C35.3 601 17.7 601 8.8 601L0 601Z" fill="#0287ee"></path><path d="M0 508L8.8 511C17.7 514 35.3 520 53 521.7C70.7 523.3 88.3 520.7 106 523.5C123.7 526.3 141.3 534.7 159 539.3C176.7 544 194.3 545 212 544C229.7 543 247.3 540 265 536.2C282.7 532.3 300.3 527.7 318 528.5C335.7 529.3 353.3 535.7 371 537.2C388.7 538.7 406.3 535.3 423.8 534C441.3 532.7 458.7 533.3 476.2 531.8C493.7 530.3 511.3 526.7 529 526.3C546.7 526 564.3 529 582 532.3C599.7 535.7 617.3 539.3 635 538.5C652.7 537.7 670.3 532.3 688 532.3C705.7 532.3 723.3 537.7 741 537.2C758.7 536.7 776.3 530.3 794 528.8C811.7 527.3 829.3 530.7 847 528.5C864.7 526.3 882.3 518.7 891.2 514.8L900 511L900 601L891.2 601C882.3 601 864.7 601 847 601C829.3 601 811.7 601 794 601C776.3 601 758.7 601 741 601C723.3 601 705.7 601 688 601C670.3 601 652.7 601 635 601C617.3 601 599.7 601 582 601C564.3 601 546.7 601 529 601C511.3 601 493.7 601 476.2 601C458.7 601 441.3 601 423.8 601C406.3 601 388.7 601 371 601C353.3 601 335.7 601 318 601C300.3 601 282.7 601 265 601C247.3 601 229.7 601 212 601C194.3 601 176.7 601 159 601C141.3 601 123.7 601 106 601C88.3 601 70.7 601 53 601C35.3 601 17.7 601 8.8 601L0 601Z" fill="#2a6add"></path><path d="M0 563L8.8 560.5C17.7 558 35.3 553 53 552.8C70.7 552.7 88.3 557.3 106 555.8C123.7 554.3 141.3 546.7 159 542.3C176.7 538 194.3 537 212 537.8C229.7 538.7 247.3 541.3 265 545.3C282.7 549.3 300.3 554.7 318 554C335.7 553.3 353.3 546.7 371 547C388.7 547.3 406.3 554.7 423.8 557.2C441.3 559.7 458.7 557.3 476.2 553.2C493.7 549 511.3 543 529 541C546.7 539 564.3 541 582 545.2C599.7 549.3 617.3 555.7 635 554.2C652.7 552.7 670.3 543.3 688 543.5C705.7 543.7 723.3 553.3 741 559.2C758.7 565 776.3 567 794 565.7C811.7 564.3 829.3 559.7 847 553.8C864.7 548 882.3 541 891.2 537.5L900 534L900 601L891.2 601C882.3 601 864.7 601 847 601C829.3 601 811.7 601 794 601C776.3 601 758.7 601 741 601C723.3 601 705.7 601 688 601C670.3 601 652.7 601 635 601C617.3 601 599.7 601 582 601C564.3 601 546.7 601 529 601C511.3 601 493.7 601 476.2 601C458.7 601 441.3 601 423.8 601C406.3 601 388.7 601 371 601C353.3 601 335.7 601 318 601C300.3 601 282.7 601 265 601C247.3 601 229.7 601 212 601C194.3 601 176.7 601 159 601C141.3 601 123.7 601 106 601C88.3 601 70.7 601 53 601C35.3 601 17.7 601 8.8 601L0 601Z" fill="#474ac7"></path><path d="M0 570L8.8 568C17.7 566 35.3 562 53 560C70.7 558 88.3 558 106 558.2C123.7 558.3 141.3 558.7 159 562.5C176.7 566.3 194.3 573.7 212 577.3C229.7 581 247.3 581 265 578.7C282.7 576.3 300.3 571.7 318 571C335.7 570.3 353.3 573.7 371 575.7C388.7 577.7 406.3 578.3 423.8 575.7C441.3 573 458.7 567 476.2 567.5C493.7 568 511.3 575 529 576.5C546.7 578 564.3 574 582 573.7C599.7 573.3 617.3 576.7 635 574.7C652.7 572.7 670.3 565.3 688 565.2C705.7 565 723.3 572 741 572.3C758.7 572.7 776.3 566.3 794 567C811.7 567.7 829.3 575.3 847 577.7C864.7 580 882.3 577 891.2 575.5L900 574L900 601L891.2 601C882.3 601 864.7 601 847 601C829.3 601 811.7 601 794 601C776.3 601 758.7 601 741 601C723.3 601 705.7 601 688 601C670.3 601 652.7 601 635 601C617.3 601 599.7 601 582 601C564.3 601 546.7 601 529 601C511.3 601 493.7 601 476.2 601C458.7 601 441.3 601 423.8 601C406.3 601 388.7 601 371 601C353.3 601 335.7 601 318 601C300.3 601 282.7 601 265 601C247.3 601 229.7 601 212 601C194.3 601 176.7 601 159 601C141.3 601 123.7 601 106 601C88.3 601 70.7 601 53 601C35.3 601 17.7 601 8.8 601L0 601Z" fill="#5c1eab"></path></svg>