<svg id="visual" viewBox="0 0 900 600" width="900" height="600" xmlns="http://www.w3.org/2000/svg" xmlns:xlink="http://www.w3.org/1999/xlink" version="1.1"><path d="M626 600L619.3 594.2C612.7 588.3 599.3 576.7 608.5 564.8C617.7 553 649.3 541 665.3 529.2C681.3 517.3 681.7 505.7 675.3 494C669 482.3 656 470.7 653.7 459C651.3 447.3 659.7 435.7 654.3 423.8C649 412 630 400 616.8 388.2C603.7 376.3 596.3 364.7 608.7 353C621 341.3 653 329.7 662.5 317.8C672 306 659 294 648 282.2C637 270.3 628 258.7 627.5 247C627 235.3 635 223.7 640.2 211.8C645.3 200 647.7 188 638.7 176.2C629.7 164.3 609.3 152.7 599.8 141C590.3 129.3 591.7 117.7 607.3 106C623 94.3 653 82.7 662.8 70.8C672.7 59 662.3 47 660.2 35.2C658 23.3 664 11.7 667 5.8L670 0L900 0L900 5.8C900 11.7 900 23.3 900 35.2C900 47 900 59 900 70.8C900 82.7 900 94.3 900 106C900 117.7 900 129.3 900 141C900 152.7 900 164.3 900 176.2C900 188 900 200 900 211.8C900 223.7 900 235.3 900 247C900 258.7 900 270.3 900 282.2C900 294 900 306 900 317.8C900 329.7 900 341.3 900 353C900 364.7 900 376.3 900 388.2C900 400 900 412 900 423.8C900 435.7 900 447.3 900 459C900 470.7 900 482.3 900 494C900 505.7 900 517.3 900 529.2C900 541 900 553 900 564.8C900 576.7 900 588.3 900 594.2L900 600Z" fill="#5c1eab"></path><path d="M715 600L703.2 594.2C691.3 588.3 667.7 576.7 666 564.8C664.3 553 684.7 541 695.5 529.2C706.3 517.3 707.7 505.7 709.2 494C710.7 482.3 712.3 470.7 713.2 459C714 447.3 714 435.7 703.7 423.8C693.3 412 672.7 400 658.5 388.2C644.3 376.3 636.7 364.7 631.7 353C626.7 341.3 624.3 329.7 635.2 317.8C646 306 670 294 682 282.2C694 270.3 694 258.7 693.3 247C692.7 235.3 691.3 223.7 687.8 211.8C684.3 200 678.7 188 667.3 176.2C656 164.3 639 152.7 644.8 141C650.7 129.3 679.3 117.7 695.8 106C712.3 94.3 716.7 82.7 702.5 70.8C688.3 59 655.7 47 638.5 35.2C621.3 23.3 619.7 11.7 618.8 5.8L618 0L900 0L900 5.8C900 11.7 900 23.3 900 35.2C900 47 900 59 900 70.8C900 82.7 900 94.3 900 106C900 117.7 900 129.3 900 141C900 152.7 900 164.3 900 176.2C900 188 900 200 900 211.8C900 223.7 900 235.3 900 247C900 258.7 900 270.3 900 282.2C900 294 900 306 900 317.8C900 329.7 900 341.3 900 353C900 364.7 900 376.3 900 388.2C900 400 900 412 900 423.8C900 435.7 900 447.3 900 459C900 470.7 900 482.3 900 494C900 505.7 900 517.3 900 529.2C900 541 900 553 900 564.8C900 576.7 900 588.3 900 594.2L900 600Z" fill="#474ac7"></path><path d="M707 600L698.5 594.2C690 588.3 673 576.7 668.3 564.8C663.7 553 671.3 541 673 529.2C674.7 517.3 670.3 505.7 668.5 494C666.7 482.3 667.3 470.7 676.3 459C685.3 447.3 702.7 435.7 710.2 423.8C717.7 412 715.3 400 711.2 388.2C707 376.3 701 364.7 700.2 353C699.3 341.3 703.7 329.7 707.5 317.8C711.3 306 714.7 294 713.3 282.2C712 270.3 706 258.7 696 247C686 235.3 672 223.7 675.8 211.8C679.7 200 701.3 188 708.2 176.2C715 164.3 707 152.7 700.2 141C693.3 129.3 687.7 117.7 692.7 106C697.7 94.3 713.3 82.7 711.5 70.8C709.7 59 690.3 47 690.5 35.2C690.7 23.3 710.3 11.7 720.2 5.8L730 0L900 0L900 5.8C900 11.7 900 23.3 900 35.2C900 47 900 59 900 70.8C900 82.7 900 94.3 900 106C900 117.7 900 129.3 900 141C900 152.7 900 164.3 900 176.2C900 188 900 200 900 211.8C900 223.7 900 235.3 900 247C900 258.7 900 270.3 900 282.2C900 294 900 306 900 317.8C900 329.7 900 341.3 900 353C900 364.7 900 376.3 900 388.2C900 400 900 412 900 423.8C900 435.7 900 447.3 900 459C900 470.7 900 482.3 900 494C900 505.7 900 517.3 900 529.2C900 541 900 553 900 564.8C900 576.7 900 588.3 900 594.2L900 600Z" fill="#2a6add"></path><path d="M699 600L708.7 594.2C718.3 588.3 737.7 576.7 737.3 564.8C737 553 717 541 713 529.2C709 517.3 721 505.7 731.8 494C742.7 482.3 752.3 470.7 758.2 459C764 447.3 766 435.7 759.5 423.8C753 412 738 400 727.5 388.2C717 376.3 711 364.7 715.8 353C720.7 341.3 736.3 329.7 747.8 317.8C759.3 306 766.7 294 766 282.2C765.3 270.3 756.7 258.7 751.5 247C746.3 235.3 744.7 223.7 739.5 211.8C734.3 200 725.7 188 726.8 176.2C728 164.3 739 152.7 735.8 141C732.7 129.3 715.3 117.7 717.8 106C720.3 94.3 742.7 82.7 751.2 70.8C759.7 59 754.3 47 755 35.2C755.7 23.3 762.3 11.7 765.7 5.8L769 0L900 0L900 5.8C900 11.7 900 23.3 900 35.2C900 47 900 59 900 70.8C900 82.7 900 94.3 900 106C900 117.7 900 129.3 900 141C900 152.7 900 164.3 900 176.2C900 188 900 200 900 211.8C900 223.7 900 235.3 900 247C900 258.7 900 270.3 900 282.2C900 294 900 306 900 317.8C900 329.7 900 341.3 900 353C900 364.7 900 376.3 900 388.2C900 400 900 412 900 423.8C900 435.7 900 447.3 900 459C900 470.7 900 482.3 900 494C900 505.7 900 517.3 900 529.2C900 541 900 553 900 564.8C900 576.7 900 588.3 900 594.2L900 600Z" fill="#0287ee"></path><path d="M747 600L751.5 594.2C756 588.3 765 576.7 772.5 564.8C780 553 786 541 787.3 529.2C788.7 517.3 785.3 505.7 783.2 494C781 482.3 780 470.7 776 459C772 447.3 765 435.7 767.2 423.8C769.3 412 780.7 400 781 388.2C781.3 376.3 770.7 364.7 763.7 353C756.7 341.3 753.3 329.7 754.8 317.8C756.3 306 762.7 294 766 282.2C769.3 270.3 769.7 258.7 774.2 247C778.7 235.3 787.3 223.7 787.8 211.8C788.3 200 780.7 188 771.8 176.2C763 164.3 753 152.7 750.3 141C747.7 129.3 752.3 117.7 758.3 106C764.3 94.3 771.7 82.7 772.3 70.8C773 59 767 47 762.3 35.2C757.7 23.3 754.3 11.7 752.7 5.8L751 0L900 0L900 5.8C900 11.7 900 23.3 900 35.2C900 47 900 59 900 70.8C900 82.7 900 94.3 900 106C900 117.7 900 129.3 900 141C900 152.7 900 164.3 900 176.2C900 188 900 200 900 211.8C900 223.7 900 235.3 900 247C900 258.7 900 270.3 900 282.2C900 294 900 306 900 317.8C900 329.7 900 341.3 900 353C900 364.7 900 376.3 900 388.2C900 400 900 412 900 423.8C900 435.7 900 447.3 900 459C900 470.7 900 482.3 900 494C900 505.7 900 517.3 900 529.2C900 541 900 553 900 564.8C900 576.7 900 588.3 900 594.2L900 600Z" fill="#00a2f9"></path><path d="M784 600L783 594.2C782 588.3 780 576.7 781.3 564.8C782.7 553 787.3 541 791 529.2C794.7 517.3 797.3 505.7 798.2 494C799 482.3 798 470.7 803 459C808 447.3 819 435.7 817.5 423.8C816 412 802 400 793.3 388.2C784.7 376.3 781.3 364.7 780.7 353C780 341.3 782 329.7 781.5 317.8C781 306 778 294 785.7 282.2C793.3 270.3 811.7 258.7 816.5 247C821.3 235.3 812.7 223.7 802 211.8C791.3 200 778.7 188 781.2 176.2C783.7 164.3 801.3 152.7 809 141C816.7 129.3 814.3 117.7 811.7 106C809 94.3 806 82.7 800.2 70.8C794.3 59 785.7 47 788.5 35.2C791.3 23.3 805.7 11.7 812.8 5.8L820 0L900 0L900 5.8C900 11.7 900 23.3 900 35.2C900 47 900 59 900 70.8C900 82.7 900 94.3 900 106C900 117.7 900 129.3 900 141C900 152.7 900 164.3 900 176.2C900 188 900 200 900 211.8C900 223.7 900 235.3 900 247C900 258.7 900 270.3 900 282.2C900 294 900 306 900 317.8C900 329.7 900 341.3 900 353C900 364.7 900 376.3 900 388.2C900 400 900 412 900 423.8C900 435.7 900 447.3 900 459C900 470.7 900 482.3 900 494C900 505.7 900 517.3 900 529.2C900 541 900 553 900 564.8C900 576.7 900 588.3 900 594.2L900 600Z" fill="#00bbfb"></path><path d="M851 600L844.8 594.2C838.7 588.3 826.3 576.7 819 564.8C811.7 553 809.3 541 808.7 529.2C808 517.3 809 505.7 810 494C811 482.3 812 470.7 813 459C814 447.3 815 435.7 816.2 423.8C817.3 412 818.7 400 825.2 388.2C831.7 376.3 843.3 364.7 840.8 353C838.3 341.3 821.7 329.7 815.2 317.8C808.7 306 812.3 294 816 282.2C819.7 270.3 823.3 258.7 826.8 247C830.3 235.3 833.7 223.7 835.7 211.8C837.7 200 838.3 188 832.5 176.2C826.7 164.3 814.3 152.7 813.2 141C812 129.3 822 117.7 830.3 106C838.7 94.3 845.3 82.7 847.7 70.8C850 59 848 47 843.8 35.2C839.7 23.3 833.3 11.7 830.2 5.8L827 0L900 0L900 5.8C900 11.7 900 23.3 900 35.2C900 47 900 59 900 70.8C900 82.7 900 94.3 900 106C900 117.7 900 129.3 900 141C900 152.7 900 164.3 900 176.2C900 188 900 200 900 211.8C900 223.7 900 235.3 900 247C900 258.7 900 270.3 900 282.2C900 294 900 306 900 317.8C900 329.7 900 341.3 900 353C900 364.7 900 376.3 900 388.2C900 400 900 412 900 423.8C900 435.7 900 447.3 900 459C900 470.7 900 482.3 900 494C900 505.7 900 517.3 900 529.2C900 541 900 553 900 564.8C900 576.7 900 588.3 900 594.2L900 600Z" fill="#00d1f4"></path><path d="M856 600L858.3 594.2C860.7 588.3 865.3 576.7 869.7 564.8C874 553 878 541 878.2 529.2C878.3 517.3 874.7 505.7 870.3 494C866 482.3 861 470.7 856 459C851 447.3 846 435.7 849.2 423.8C852.3 412 863.7 400 870.5 388.2C877.3 376.3 879.7 364.7 873.7 353C867.7 341.3 853.3 329.7 847.3 317.8C841.3 306 843.7 294 849 282.2C854.3 270.3 862.7 258.7 862 247C861.3 235.3 851.7 223.7 852.5 211.8C853.3 200 864.7 188 870.3 176.2C876 164.3 876 152.7 870 141C864 129.3 852 117.7 851.8 106C851.7 94.3 863.3 82.7 870.7 70.8C878 59 881 47 879.2 35.2C877.3 23.3 870.7 11.7 867.3 5.8L864 0L900 0L900 5.8C900 11.7 900 23.3 900 35.2C900 47 900 59 900 70.8C900 82.7 900 94.3 900 106C900 117.7 900 129.3 900 141C900 152.7 900 164.3 900 176.2C900 188 900 200 900 211.8C900 223.7 900 235.3 900 247C900 258.7 900 270.3 900 282.2C900 294 900 306 900 317.8C900 329.7 900 341.3 900 353C900 364.7 900 376.3 900 388.2C900 400 900 412 900 423.8C900 435.7 900 447.3 900 459C900 470.7 900 482.3 900 494C900 505.7 900 517.3 900 529.2C900 541 900 553 900 564.8C900 576.7 900 588.3 900 594.2L900 600Z" fill="#00e4e8"></path></svg>