<svg id="visual" viewBox="0 0 900 600" width="900" height="600" xmlns="http://www.w3.org/2000/svg" xmlns:xlink="http://www.w3.org/1999/xlink" version="1.1"><path d="M0 415L8.8 410.7C17.7 406.3 35.3 397.7 53 403.8C70.7 410 88.3 431 106 441.7C123.7 452.3 141.3 452.7 159 448.5C176.7 444.3 194.3 435.7 212 434.2C229.7 432.7 247.3 438.3 265 434.7C282.7 431 300.3 418 318 409.2C335.7 400.3 353.3 395.7 371 404C388.7 412.3 406.3 433.7 423.8 440C441.3 446.3 458.7 437.7 476.2 430.3C493.7 423 511.3 417 529 416.7C546.7 416.3 564.3 421.7 582 425.2C599.7 428.7 617.3 430.3 635 424.3C652.7 418.3 670.3 404.7 688 398.3C705.7 392 723.3 393 741 403.5C758.7 414 776.3 434 794 440.5C811.7 447 829.3 440 847 438.5C864.7 437 882.3 441 891.2 443L900 445L900 601L891.2 601C882.3 601 864.7 601 847 601C829.3 601 811.7 601 794 601C776.3 601 758.7 601 741 601C723.3 601 705.7 601 688 601C670.3 601 652.7 601 635 601C617.3 601 599.7 601 582 601C564.3 601 546.7 601 529 601C511.3 601 493.7 601 476.2 601C458.7 601 441.3 601 423.8 601C406.3 601 388.7 601 371 601C353.3 601 335.7 601 318 601C300.3 601 282.7 601 265 601C247.3 601 229.7 601 212 601C194.3 601 176.7 601 159 601C141.3 601 123.7 601 106 601C88.3 601 70.7 601 53 601C35.3 601 17.7 601 8.8 601L0 601Z" fill="#5c1eab"></path><path d="M0 475L8.8 467.2C17.7 459.3 35.3 443.7 53 442.5C70.7 441.3 88.3 454.7 106 461.8C123.7 469 141.3 470 159 471C176.7 472 194.3 473 212 473.7C229.7 474.3 247.3 474.7 265 467.8C282.7 461 300.3 447 318 437.5C335.7 428 353.3 423 371 419.7C388.7 416.3 406.3 414.7 423.8 421.8C441.3 429 458.7 445 476.2 453C493.7 461 511.3 461 529 460.7C546.7 460.3 564.3 459.7 582 457.3C599.7 455 617.3 451 635 443.3C652.7 435.7 670.3 424.3 688 428.2C705.7 432 723.3 451 741 462C758.7 473 776.3 476 794 466.7C811.7 457.3 829.3 435.7 847 424.2C864.7 412.7 882.3 411.3 891.2 410.7L900 410L900 601L891.2 601C882.3 601 864.7 601 847 601C829.3 601 811.7 601 794 601C776.3 601 758.7 601 741 601C723.3 601 705.7 601 688 601C670.3 601 652.7 601 635 601C617.3 601 599.7 601 582 601C564.3 601 546.7 601 529 601C511.3 601 493.7 601 476.2 601C458.7 601 441.3 601 423.8 601C406.3 601 388.7 601 371 601C353.3 601 335.7 601 318 601C300.3 601 282.7 601 265 601C247.3 601 229.7 601 212 601C194.3 601 176.7 601 159 601C141.3 601 123.7 601 106 601C88.3 601 70.7 601 53 601C35.3 601 17.7 601 8.8 601L0 601Z" fill="#474ac7"></path><path d="M0 470L8.8 464.2C17.7 458.3 35.3 446.7 53 443.5C70.7 440.3 88.3 445.7 106 446.8C123.7 448 141.3 445 159 443.8C176.7 442.7 194.3 443.3 212 449.3C229.7 455.3 247.3 466.7 265 471.5C282.7 476.3 300.3 474.7 318 472C335.7 469.3 353.3 465.7 371 465.2C388.7 464.7 406.3 467.3 423.8 469.8C441.3 472.3 458.7 474.7 476.2 473.8C493.7 473 511.3 469 529 462.3C546.7 455.7 564.3 446.3 582 448.8C599.7 451.3 617.3 465.7 635 470.3C652.7 475 670.3 470 688 465.5C705.7 461 723.3 457 741 460.3C758.7 463.7 776.3 474.3 794 473.2C811.7 472 829.3 459 847 459C864.7 459 882.3 472 891.2 478.5L900 485L900 601L891.2 601C882.3 601 864.7 601 847 601C829.3 601 811.7 601 794 601C776.3 601 758.7 601 741 601C723.3 601 705.7 601 688 601C670.3 601 652.7 601 635 601C617.3 601 599.7 601 582 601C564.3 601 546.7 601 529 601C511.3 601 493.7 601 476.2 601C458.7 601 441.3 601 423.8 601C406.3 601 388.7 601 371 601C353.3 601 335.7 601 318 601C300.3 601 282.7 601 265 601C247.3 601 229.7 601 212 601C194.3 601 176.7 601 159 601C141.3 601 123.7 601 106 601C88.3 601 70.7 601 53 601C35.3 601 17.7 601 8.8 601L0 601Z" fill="#2a6add"></path><path d="M0 464L8.8 470.5C17.7 477 35.3 490 53 489.8C70.7 489.7 88.3 476.3 106 473.7C123.7 471 141.3 479 159 486.2C176.7 493.3 194.3 499.7 212 503.5C229.7 507.3 247.3 508.7 265 504.3C282.7 500 300.3 490 318 483.2C335.7 476.3 353.3 472.7 371 476C388.7 479.3 406.3 489.7 423.8 497.2C441.3 504.7 458.7 509.3 476.2 508.8C493.7 508.3 511.3 502.7 529 499.2C546.7 495.7 564.3 494.3 582 490.8C599.7 487.3 617.3 481.7 635 482.5C652.7 483.3 670.3 490.7 688 488.7C705.7 486.7 723.3 475.3 741 477C758.7 478.7 776.3 493.3 794 499C811.7 504.7 829.3 501.3 847 501.8C864.7 502.3 882.3 506.7 891.2 508.8L900 511L900 601L891.2 601C882.3 601 864.7 601 847 601C829.3 601 811.7 601 794 601C776.3 601 758.7 601 741 601C723.3 601 705.7 601 688 601C670.3 601 652.7 601 635 601C617.3 601 599.7 601 582 601C564.3 601 546.7 601 529 601C511.3 601 493.7 601 476.2 601C458.7 601 441.3 601 423.8 601C406.3 601 388.7 601 371 601C353.3 601 335.7 601 318 601C300.3 601 282.7 601 265 601C247.3 601 229.7 601 212 601C194.3 601 176.7 601 159 601C141.3 601 123.7 601 106 601C88.3 601 70.7 601 53 601C35.3 601 17.7 601 8.8 601L0 601Z" fill="#0287ee"></path><path d="M0 497L8.8 499.8C17.7 502.7 35.3 508.3 53 513.2C70.7 518 88.3 522 106 523C123.7 524 141.3 522 159 520.7C176.7 519.3 194.3 518.7 212 516C229.7 513.3 247.3 508.7 265 510C282.7 511.3 300.3 518.7 318 518.8C335.7 519 353.3 512 371 507.3C388.7 502.7 406.3 500.3 423.8 501.3C441.3 502.3 458.7 506.7 476.2 509C493.7 511.3 511.3 511.7 529 514.7C546.7 517.7 564.3 523.3 582 523.7C599.7 524 617.3 519 635 513C652.7 507 670.3 500 688 498.2C705.7 496.3 723.3 499.7 741 503.8C758.7 508 776.3 513 794 513.5C811.7 514 829.3 510 847 506.8C864.7 503.7 882.3 501.3 891.2 500.2L900 499L900 601L891.2 601C882.3 601 864.7 601 847 601C829.3 601 811.7 601 794 601C776.3 601 758.7 601 741 601C723.3 601 705.7 601 688 601C670.3 601 652.7 601 635 601C617.3 601 599.7 601 582 601C564.3 601 546.7 601 529 601C511.3 601 493.7 601 476.2 601C458.7 601 441.3 601 423.8 601C406.3 601 388.7 601 371 601C353.3 601 335.7 601 318 601C300.3 601 282.7 601 265 601C247.3 601 229.7 601 212 601C194.3 601 176.7 601 159 601C141.3 601 123.7 601 106 601C88.3 601 70.7 601 53 601C35.3 601 17.7 601 8.8 601L0 601Z" fill="#00a2f9"></path><path d="M0 521L8.8 520.3C17.7 519.7 35.3 518.3 53 519.2C70.7 520 88.3 523 106 525.5C123.7 528 141.3 530 159 530.7C176.7 531.3 194.3 530.7 212 534C229.7 537.3 247.3 544.7 265 543.7C282.7 542.7 300.3 533.3 318 527.5C335.7 521.7 353.3 519.3 371 518.8C388.7 518.3 406.3 519.7 423.8 519.3C441.3 519 458.7 517 476.2 522.2C493.7 527.3 511.3 539.7 529 542.8C546.7 546 564.3 540 582 532.8C599.7 525.7 617.3 517.3 635 519C652.7 520.7 670.3 532.3 688 537.5C705.7 542.7 723.3 541.3 741 539.7C758.7 538 776.3 536 794 532C811.7 528 829.3 522 847 523.8C864.7 525.7 882.3 535.3 891.2 540.2L900 545L900 601L891.2 601C882.3 601 864.7 601 847 601C829.3 601 811.7 601 794 601C776.3 601 758.7 601 741 601C723.3 601 705.7 601 688 601C670.3 601 652.7 601 635 601C617.3 601 599.7 601 582 601C564.3 601 546.7 601 529 601C511.3 601 493.7 601 476.2 601C458.7 601 441.3 601 423.8 601C406.3 601 388.7 601 371 601C353.3 601 335.7 601 318 601C300.3 601 282.7 601 265 601C247.3 601 229.7 601 212 601C194.3 601 176.7 601 159 601C141.3 601 123.7 601 106 601C88.3 601 70.7 601 53 601C35.3 601 17.7 601 8.8 601L0 601Z" fill="#00bbfb"></path><path d="M0 566L8.8 561.8C17.7 557.7 35.3 549.3 53 544.5C70.7 539.7 88.3 538.3 106 537.8C123.7 537.3 141.3 537.7 159 538.2C176.7 538.7 194.3 539.3 212 540C229.7 540.7 247.3 541.3 265 542.2C282.7 543 300.3 544 318 548.3C335.7 552.7 353.3 560.3 371 558.7C388.7 557 406.3 546 423.8 541.7C441.3 537.3 458.7 539.7 476.2 542.2C493.7 544.7 511.3 547.3 529 549.7C546.7 552 564.3 554 582 555.3C599.7 556.7 617.3 557.3 635 553.5C652.7 549.7 670.3 541.3 688 540.5C705.7 539.7 723.3 546.3 741 551.8C758.7 557.3 776.3 561.7 794 563.3C811.7 565 829.3 564 847 561.2C864.7 558.3 882.3 553.7 891.2 551.3L900 549L900 601L891.2 601C882.3 601 864.7 601 847 601C829.3 601 811.7 601 794 601C776.3 601 758.7 601 741 601C723.3 601 705.7 601 688 601C670.3 601 652.7 601 635 601C617.3 601 599.7 601 582 601C564.3 601 546.7 601 529 601C511.3 601 493.7 601 476.2 601C458.7 601 441.3 601 423.8 601C406.3 601 388.7 601 371 601C353.3 601 335.7 601 318 601C300.3 601 282.7 601 265 601C247.3 601 229.7 601 212 601C194.3 601 176.7 601 159 601C141.3 601 123.7 601 106 601C88.3 601 70.7 601 53 601C35.3 601 17.7 601 8.8 601L0 601Z" fill="#00d1f4"></path><path d="M0 569L8.8 570.7C17.7 572.3 35.3 575.7 53 578.5C70.7 581.3 88.3 583.7 106 583.7C123.7 583.7 141.3 581.3 159 578.5C176.7 575.7 194.3 572.3 212 569C229.7 565.7 247.3 562.3 265 564.5C282.7 566.7 300.3 574.3 318 578.8C335.7 583.3 353.3 584.7 371 580.7C388.7 576.7 406.3 567.3 423.8 563.5C441.3 559.7 458.7 561.3 476.2 564.8C493.7 568.3 511.3 573.7 529 573C546.7 572.3 564.3 565.7 582 566.2C599.7 566.7 617.3 574.3 635 578.2C652.7 582 670.3 582 688 578C705.7 574 723.3 566 741 566C758.7 566 776.3 574 794 578.8C811.7 583.7 829.3 585.3 847 584C864.7 582.7 882.3 578.3 891.2 576.2L900 574L900 601L891.2 601C882.3 601 864.7 601 847 601C829.3 601 811.7 601 794 601C776.3 601 758.7 601 741 601C723.3 601 705.7 601 688 601C670.3 601 652.7 601 635 601C617.3 601 599.7 601 582 601C564.3 601 546.7 601 529 601C511.3 601 493.7 601 476.2 601C458.7 601 441.3 601 423.8 601C406.3 601 388.7 601 371 601C353.3 601 335.7 601 318 601C300.3 601 282.7 601 265 601C247.3 601 229.7 601 212 601C194.3 601 176.7 601 159 601C141.3 601 123.7 601 106 601C88.3 601 70.7 601 53 601C35.3 601 17.7 601 8.8 601L0 601Z" fill="#00e4e8"></path></svg>