<svg id="visual" viewBox="0 0 900 600" width="900" height="600" xmlns="http://www.w3.org/2000/svg" xmlns:xlink="http://www.w3.org/1999/xlink" version="1.1"><path d="M672 600L679.3 594.2C686.7 588.3 701.3 576.7 707.3 564.8C713.3 553 710.7 541 705.2 529.2C699.7 517.3 691.3 505.7 689.8 494C688.3 482.3 693.7 470.7 697.2 459C700.7 447.3 702.3 435.7 705.8 423.8C709.3 412 714.7 400 722.3 388.2C730 376.3 740 364.7 741.8 353C743.7 341.3 737.3 329.7 736.7 317.8C736 306 741 294 739.8 282.2C738.7 270.3 731.3 258.7 726.7 247C722 235.3 720 223.7 714.2 211.8C708.3 200 698.7 188 698.2 176.2C697.7 164.3 706.3 152.7 709 141C711.7 129.3 708.3 117.7 703.5 106C698.7 94.3 692.3 82.7 695.8 70.8C699.3 59 712.7 47 711 35.2C709.3 23.3 692.7 11.7 684.3 5.8L676 0L900 0L900 5.8C900 11.7 900 23.3 900 35.2C900 47 900 59 900 70.8C900 82.7 900 94.3 900 106C900 117.7 900 129.3 900 141C900 152.7 900 164.3 900 176.2C900 188 900 200 900 211.8C900 223.7 900 235.3 900 247C900 258.7 900 270.3 900 282.2C900 294 900 306 900 317.8C900 329.7 900 341.3 900 353C900 364.7 900 376.3 900 388.2C900 400 900 412 900 423.8C900 435.7 900 447.3 900 459C900 470.7 900 482.3 900 494C900 505.7 900 517.3 900 529.2C900 541 900 553 900 564.8C900 576.7 900 588.3 900 594.2L900 600Z" fill="#5c1eab"></path><path d="M781 600L774.2 594.2C767.3 588.3 753.7 576.7 749.5 564.8C745.3 553 750.7 541 750 529.2C749.3 517.3 742.7 505.7 746.8 494C751 482.3 766 470.7 770.7 459C775.3 447.3 769.7 435.7 758.2 423.8C746.7 412 729.3 400 726.7 388.2C724 376.3 736 364.7 736 353C736 341.3 724 329.7 719 317.8C714 306 716 294 724.3 282.2C732.7 270.3 747.3 258.7 753 247C758.7 235.3 755.3 223.7 753.5 211.8C751.7 200 751.3 188 746.2 176.2C741 164.3 731 152.7 733.2 141C735.3 129.3 749.7 117.7 754.7 106C759.7 94.3 755.3 82.7 753 70.8C750.7 59 750.3 47 744.3 35.2C738.3 23.3 726.7 11.7 720.8 5.8L715 0L900 0L900 5.8C900 11.7 900 23.3 900 35.2C900 47 900 59 900 70.8C900 82.7 900 94.3 900 106C900 117.7 900 129.3 900 141C900 152.7 900 164.3 900 176.2C900 188 900 200 900 211.8C900 223.7 900 235.3 900 247C900 258.7 900 270.3 900 282.2C900 294 900 306 900 317.8C900 329.7 900 341.3 900 353C900 364.7 900 376.3 900 388.2C900 400 900 412 900 423.8C900 435.7 900 447.3 900 459C900 470.7 900 482.3 900 494C900 505.7 900 517.3 900 529.2C900 541 900 553 900 564.8C900 576.7 900 588.3 900 594.2L900 600Z" fill="#3162d8"></path><path d="M807 600L806.2 594.2C805.3 588.3 803.7 576.7 796 564.8C788.3 553 774.7 541 768.3 529.2C762 517.3 763 505.7 769.8 494C776.7 482.3 789.3 470.7 797.8 459C806.3 447.3 810.7 435.7 809.5 423.8C808.3 412 801.7 400 801.2 388.2C800.7 376.3 806.3 364.7 808.8 353C811.3 341.3 810.7 329.7 801.2 317.8C791.7 306 773.3 294 765.7 282.2C758 270.3 761 258.7 769 247C777 235.3 790 223.7 794 211.8C798 200 793 188 792.2 176.2C791.3 164.3 794.7 152.7 791.3 141C788 129.3 778 117.7 779 106C780 94.3 792 82.7 796.2 70.8C800.3 59 796.7 47 795 35.2C793.3 23.3 793.7 11.7 793.8 5.8L794 0L900 0L900 5.8C900 11.7 900 23.3 900 35.2C900 47 900 59 900 70.8C900 82.7 900 94.3 900 106C900 117.7 900 129.3 900 141C900 152.7 900 164.3 900 176.2C900 188 900 200 900 211.8C900 223.7 900 235.3 900 247C900 258.7 900 270.3 900 282.2C900 294 900 306 900 317.8C900 329.7 900 341.3 900 353C900 364.7 900 376.3 900 388.2C900 400 900 412 900 423.8C900 435.7 900 447.3 900 459C900 470.7 900 482.3 900 494C900 505.7 900 517.3 900 529.2C900 541 900 553 900 564.8C900 576.7 900 588.3 900 594.2L900 600Z" fill="#0095f3"></path><path d="M837 600L831.2 594.2C825.3 588.3 813.7 576.7 813 564.8C812.3 553 822.7 541 827.2 529.2C831.7 517.3 830.3 505.7 825 494C819.7 482.3 810.3 470.7 804.7 459C799 447.3 797 435.7 800.2 423.8C803.3 412 811.7 400 813.7 388.2C815.7 376.3 811.3 364.7 813.8 353C816.3 341.3 825.7 329.7 829.5 317.8C833.3 306 831.7 294 826 282.2C820.3 270.3 810.7 258.7 813.3 247C816 235.3 831 223.7 831.3 211.8C831.7 200 817.3 188 811 176.2C804.7 164.3 806.3 152.7 813.2 141C820 129.3 832 117.7 836 106C840 94.3 836 82.7 833 70.8C830 59 828 47 824.3 35.2C820.7 23.3 815.3 11.7 812.7 5.8L810 0L900 0L900 5.8C900 11.7 900 23.3 900 35.2C900 47 900 59 900 70.8C900 82.7 900 94.3 900 106C900 117.7 900 129.3 900 141C900 152.7 900 164.3 900 176.2C900 188 900 200 900 211.8C900 223.7 900 235.3 900 247C900 258.7 900 270.3 900 282.2C900 294 900 306 900 317.8C900 329.7 900 341.3 900 353C900 364.7 900 376.3 900 388.2C900 400 900 412 900 423.8C900 435.7 900 447.3 900 459C900 470.7 900 482.3 900 494C900 505.7 900 517.3 900 529.2C900 541 900 553 900 564.8C900 576.7 900 588.3 900 594.2L900 600Z" fill="#00c0f9"></path><path d="M856 600L856 594.2C856 588.3 856 576.7 852.5 564.8C849 553 842 541 845.3 529.2C848.7 517.3 862.3 505.7 868.7 494C875 482.3 874 470.7 870 459C866 447.3 859 435.7 857 423.8C855 412 858 400 859.5 388.2C861 376.3 861 364.7 858.7 353C856.3 341.3 851.7 329.7 853.3 317.8C855 306 863 294 865.8 282.2C868.7 270.3 866.3 258.7 860.2 247C854 235.3 844 223.7 844 211.8C844 200 854 188 856.5 176.2C859 164.3 854 152.7 851.2 141C848.3 129.3 847.7 117.7 852.3 106C857 94.3 867 82.7 870.7 70.8C874.3 59 871.7 47 865.7 35.2C859.7 23.3 850.3 11.7 845.7 5.8L841 0L900 0L900 5.8C900 11.7 900 23.3 900 35.2C900 47 900 59 900 70.8C900 82.7 900 94.3 900 106C900 117.7 900 129.3 900 141C900 152.7 900 164.3 900 176.2C900 188 900 200 900 211.8C900 223.7 900 235.3 900 247C900 258.7 900 270.3 900 282.2C900 294 900 306 900 317.8C900 329.7 900 341.3 900 353C900 364.7 900 376.3 900 388.2C900 400 900 412 900 423.8C900 435.7 900 447.3 900 459C900 470.7 900 482.3 900 494C900 505.7 900 517.3 900 529.2C900 541 900 553 900 564.8C900 576.7 900 588.3 900 594.2L900 600Z" fill="#0fe4e7"></path></svg>